<svg xmlns="http://www.w3.org/2000/svg" viewBox="0 0 488.7 121.1" enable-background="new 0 0 488.7 121.1"><g fill="#fff"><path d="M278.7 104v-93.6h10.1v93.6h-10.1zM328.6 105c-16.4 0-27.2-12.5-27.2-27.9s10.8-27.9 27.2-27.9 27.1 12.5 27.1 27.9-10.7 27.9-27.1 27.9zm0-47.5c-10.3 0-17.2 7.9-17.2 19.7 0 11.7 6.9 19.7 17.2 19.7 10.2 0 17.1-7.9 17.1-19.7 0-11.7-6.9-19.7-17.1-19.7zM394.9 105c-17 0-28.9-12.1-28.9-27.5s12-28.1 28.9-28.1c6.6 0 13.4 2.4 18.3 5.5l-4 7.7c-4.4-2.6-9.6-4.5-15.1-4.5-10.4 0-18.4 7.1-18.4 19.3 0 11.6 9.1 18.9 19 18.9 5.5 0 10.7-1.9 15.1-4.5l3.4 7.7c-4.9 3.1-11.6 5.5-18.3 5.5zM455.6 104v-5.6c-4.4 4.3-10 6.6-16.6 6.6-10.6 0-19.3-6.3-19.3-17.2 0-9.7 8.3-16.7 19.2-16.7 7.4 0 11.6 1.7 16.2 3.6v-3.2c0-9-4.3-13.3-14-13.3-5.1 0-10.3 1.2-14 2.7l-1.7-8.7c5-1.5 11.6-2.8 17-2.8 15.3 0 22.5 7.2 22.5 22.8v31.8h-9.3zm-.6-21c-5.3-3-8.7-4.4-14.6-4.4-6.9 0-11.4 3.1-11.4 9 0 5.8 4.5 9.1 12.3 9.1 5.6 0 10.2-2.8 13.5-6.6v-7.1h.2zM478.6 104v-93.6h10.1v93.6h-10.1z"/></g><path fill="#fff" d="M9 121.1h-9l30.4-121.1h8.9l-30.3 121.1zM233.7 121.1h-9l30.5-121.1h8.9l-30.4 121.1z"/><g fill="#fff"><path d="M86.6 104v-5.5c-4.3 4.4-10.3 6.5-17.1 6.5-15.4 0-26.2-11.3-26.2-27.3 0-15.7 12.2-28.3 26.4-28.3 7 0 12.2 2 16.4 5.3v-44.3h10.1v93.6h-9.6zm-.4-38.9c-3.3-4-8.7-7.2-15.5-7.2-10.1 0-17.2 8.2-17.2 19.7 0 10.7 6.6 19.1 17.9 19.1 6.5 0 11.4-2.8 14.9-7v-24.6zM157.7 80.3h-39.3c1.2 9.1 6.3 16.1 20 16.1 4.5 0 9.8-1.3 14.8-3l1.8 8.5c-6.2 1.8-12.5 3.1-17.4 3.1-19.2 0-28.9-12.1-28.9-27.5 0-14.7 9.5-28.1 26-28.1 15.2 0 23.5 11.3 23.5 25.7-.2 1.9-.2 3.3-.5 5.2zm-9-7.7c-.6-8.3-5.3-14.8-14.8-14.8-8.7 0-14 5.6-15.2 14.8h30zM190.5 105.4h-1.7l-26.2-55h11.3l16.2 37.5 16.2-37.5h10.8l-26.6 55z"/></g></svg>