<svg xmlns="http://www.w3.org/2000/svg" viewBox="0 0 261.2 121.1" enable-background="new 0 0 261.2 121.1"><g fill="#83B9F1"><path d="M87.2 76.5c0 18.8-9.8 29-24.8 29-9.3 0-16.1-3.3-21.2-7.4l2.4-3.2c4.5 3.9 10.6 6.8 18.8 6.8 12 0 20.7-8.6 20.7-25.2v-64.9h4.2v64.9zM128.3 105c-14.7 0-25.3-11.8-25.3-27.1s10.8-27.2 25.6-27.2c14.7 0 25.5 11.7 25.5 27s-11.1 27.3-25.8 27.3zm.1-50.6c-12.7 0-21.3 10.3-21.3 23.4 0 13.2 8.4 23.6 21.3 23.6 12.7 0 21.4-10.5 21.4-23.6 0-13.2-8.5-23.4-21.4-23.4zM191.4 105c-8.2 0-14.9-3.8-19-8.2v7.2h-4v-92.4h4v47.4c4.3-4.4 11-8.3 19.3-8.3 14.5 0 25.5 11.6 25.5 27.1s-11.2 27.2-25.8 27.2zm.1-50.6c-7.9 0-14.9 4.2-19.2 9.6v28c4.3 5.3 11.2 9.3 19.2 9.3 12.2 0 21.4-9.7 21.4-23.6.1-13.6-9.1-23.3-21.4-23.3zM245 105c-6.7 0-12.6-2.5-17.9-6.2l1.9-3c4.8 3.3 10 5.8 16 5.8 7.6 0 12.5-4.5 12.5-10.5 0-14.9-27.5-9.6-27.5-27.1 0-6.8 5.8-13.4 15.8-13.4 5.5 0 10.5 1.8 15.1 5l-1.9 3.2c-4.5-3.3-8.4-4.8-13.2-4.8-7.9 0-12 4.7-12 9.6 0 15 27.5 9.3 27.5 26.8-.1 7.8-6.4 14.6-16.3 14.6z"/></g><path fill="#83B9F1" d="M9 121.1h-9l30.5-121.1h8.9l-30.4 121.1z"/></svg>