<svg xmlns="http://www.w3.org/2000/svg" viewBox="104.6 188.1 767.6 121.1" enable-background="new 104.6 188.1 767.6 121.1"><g fill="#fff"><path d="M383.3 292.1v-93.6h10.1v93.6h-10.1zM433.2 293.2c-16.4 0-27.2-12.5-27.2-27.9s10.8-27.9 27.2-27.9 27.1 12.5 27.1 27.9-10.7 27.9-27.1 27.9zm0-47.6c-10.3 0-17.2 7.9-17.2 19.7 0 11.7 6.9 19.7 17.2 19.7 10.2 0 17.1-7.9 17.1-19.7.1-11.7-6.9-19.7-17.1-19.7zM499.5 293.2c-17 0-28.9-12.1-28.9-27.5s12-28.1 28.9-28.1c6.6 0 13.4 2.4 18.3 5.5l-4 7.7c-4.4-2.6-9.6-4.5-15.1-4.5-10.4 0-18.4 7.1-18.4 19.3 0 11.6 9.1 18.9 19 18.9 5.5 0 10.7-1.9 15.1-4.5l3.4 7.7c-4.9 3-11.6 5.5-18.3 5.5zM560.2 292.1v-5.6c-4.4 4.3-10 6.6-16.6 6.6-10.6 0-19.3-6.3-19.3-17.2 0-9.7 8.3-16.7 19.2-16.7 7.4 0 11.6 1.7 16.2 3.6v-3.2c0-9-4.3-13.3-14-13.3-5.1 0-10.3 1.2-14 2.7l-1.7-8.7c5-1.5 11.6-2.8 17-2.8 15.3 0 22.5 7.2 22.5 22.8v31.9c-.1-.1-9.3-.1-9.3-.1zm-.6-20.9c-5.3-3-8.7-4.4-14.6-4.4-6.9 0-11.4 3.1-11.4 9 0 5.8 4.5 9.1 12.3 9.1 5.6 0 10.2-2.8 13.5-6.6v-7.2h.2zM583.2 292.1v-93.6h10.1v93.6h-10.1z"/></g><path fill="#fff" d="M113.7 309.2h-9l30.3-121.1h8.9l-30.2 121.1zM338.3 309.2h-9l30.5-121.1h8.9l-30.4 121.1z"/><g fill="#fff"><path d="M191.3 292.1v-5.5c-4.3 4.4-10.3 6.5-17.1 6.5-15.4 0-26.2-11.3-26.2-27.3 0-15.7 12.2-28.3 26.4-28.3 7 0 12.2 2 16.4 5.3v-44.2h10.1v93.6h-9.6zm-.5-38.9c-3.3-4-8.7-7.2-15.5-7.2-10.1 0-17.2 8.2-17.2 19.7 0 10.7 6.6 19.1 17.9 19.1 6.5 0 11.4-2.8 14.9-7v-24.6zM262.3 268.4h-39.3c1.2 9.1 6.3 16.1 20 16.1 4.5 0 9.8-1.3 14.8-3l1.8 8.5c-6.2 1.8-12.5 3.1-17.4 3.1-19.2 0-28.9-12.1-28.9-27.5 0-14.7 9.5-28.1 26-28.1 15.2 0 23.5 11.3 23.5 25.7-.2 1.9-.2 3.3-.5 5.2zm-9-7.7c-.6-8.3-5.3-14.8-14.8-14.8-8.7 0-14 5.6-15.2 14.8h30zM295.1 293.5h-1.7l-26.2-55h11.3l16.2 37.5 16.2-37.5h10.8l-26.6 55z"/></g><g fill="#fff"><path d="M698.2 264.7c0 18.8-9.8 29-24.8 29-9.3 0-16.1-3.3-21.2-7.4l2.4-3.2c4.5 3.9 10.6 6.8 18.8 6.8 12 0 20.7-8.6 20.7-25.2v-64.9h4.2v64.9zM739.3 293.1c-14.7 0-25.3-11.8-25.3-27.1s10.8-27.2 25.6-27.2c14.7 0 25.5 11.7 25.5 27s-11.1 27.3-25.8 27.3zm.1-50.6c-12.7 0-21.3 10.3-21.3 23.4 0 13.2 8.4 23.6 21.3 23.6 12.7 0 21.4-10.5 21.4-23.6 0-13.2-8.5-23.4-21.4-23.4zM802.4 293.1c-8.2 0-14.9-3.8-19-8.2v7.2h-4v-92.4h4v47.4c4.3-4.4 11-8.3 19.3-8.3 14.5 0 25.5 11.6 25.5 27.1s-11.2 27.2-25.8 27.2zm.1-50.6c-7.9 0-14.9 4.2-19.2 9.6v28.1c4.3 5.3 11.2 9.3 19.2 9.3 12.2 0 21.4-9.7 21.4-23.6.1-13.7-9.1-23.4-21.4-23.4zM856 293.1c-6.7 0-12.6-2.5-17.9-6.2l1.9-3c4.8 3.3 10 5.8 16 5.8 7.6 0 12.5-4.5 12.5-10.5 0-14.9-27.5-9.6-27.5-27.1 0-6.8 5.8-13.4 15.8-13.4 5.5 0 10.5 1.8 15.1 5l-1.9 3.2c-4.5-3.3-8.4-4.8-13.2-4.8-7.9 0-12 4.7-12 9.6 0 15 27.5 9.3 27.5 26.8-.1 7.8-6.4 14.6-16.3 14.6z"/></g><path fill="#fff" d="M620 309.2h-9l30.5-121.1h8.9l-30.4 121.1z"/></svg>